<svg xmlns="http://www.w3.org/2000/svg" version="1.1" xmlns:xlink="http://www.w3.org/1999/xlink" xmlns:svgjs="http://svgjs.dev/svgjs" viewBox="0 0 800 800" opacity="1"><defs><filter id="bbburst-blur-1" x="-100%" y="-100%" width="400%" height="400%"><feGaussianBlur in="SourceGraphic" stdDeviation="1"></feGaussianBlur></filter><filter id="bbburst-blur-2" x="-100%" y="-100%" width="400%" height="400%"><feGaussianBlur in="SourceGraphic" stdDeviation="2"></feGaussianBlur></filter><filter id="bbburst-blur-3" x="-100%" y="-100%" width="400%" height="400%"><feGaussianBlur in="SourceGraphic" stdDeviation="4"></feGaussianBlur></filter><filter id="bbburst-blur-4" x="-100%" y="-100%" width="400%" height="400%"><feGaussianBlur in="SourceGraphic" stdDeviation="12"></feGaussianBlur></filter><symbol id="bbburst-shape-1" viewBox="0 0 194 167"><path d="m97 0 96.129 166.5H.871L97 0Z"></path></symbol><symbol id="bbburst-shape-4" viewBox="0 0 149 143"><path d="M71.647 2.781c.898-2.764 4.808-2.764 5.706 0l15.445 47.534a3 3 0 0 0 2.853 2.073h49.98c2.906 0 4.115 3.719 1.764 5.427L106.96 87.193a2.999 2.999 0 0 0-1.09 3.354l15.445 47.534c.898 2.764-2.266 5.062-4.617 3.354l-40.435-29.378a3 3 0 0 0-3.526 0l-40.435 29.378c-2.351 1.708-5.515-.59-4.617-3.354L43.13 90.547a3 3 0 0 0-1.09-3.354L1.605 57.815c-2.35-1.708-1.142-5.427 1.764-5.427h49.98a3 3 0 0 0 2.853-2.073L71.647 2.781Z"></path></symbol><symbol id="bbburst-shape-6" viewBox="0 0 133 116"><path d="M59.7487 10.2513c-13.6683-13.66839-35.8291-13.66839-49.4974 0-13.66839 13.6683-13.66839 35.8291 0 49.4974l49.4974-49.4974ZM66.5 66.5 41.7513 91.2487 66.5 115.997l24.7487-24.7483L66.5 66.5Zm56.249-6.7513c13.668-13.6683 13.668-35.8291 0-49.4974-13.669-13.66839-35.8294-13.66839-49.4977 0l49.4977 49.4974Zm-112.4977 0 31.5 31.5 49.4974-49.4974-31.5-31.5-49.4974 49.4974Zm80.9974 31.5 31.5003-31.5-49.4977-49.4974-31.5 31.5 49.4974 49.4974Z"></path></symbol><symbol id="bbburst-shape-8" viewBox="0 0 87 168"><path d="m12 12 31.2546 18.0749c16.4102 9.4902 20.014 31.6325 7.4603 45.8369L36.3296 92.1884c-12.5684 14.2206-8.9394 36.3916 7.5068 45.8636L75 156" stroke-width="14" stroke-linecap="round" stroke-linejoin="round"></path></symbol><symbol id="bbburst-shape-10" viewBox="0 0 145 145"><circle cx="72.5" cy="72.5" r="61.5" fill="none" stroke-width="22"></circle></symbol></defs><use xlink:href="#bbburst-shape-4" width="45.70892021229766" opacity="0.23963994574963166" transform="matrix(1.2218463299490283,0.26380209625795237,-0.26380209625795237,1.2218463299490283,221.7744878675545,132.51809880039036)" fill="#d5d2c6" filter="url(#bbburst-blur-3)"></use><use xlink:href="#bbburst-shape-8" width="46.21544766422912" opacity="0.450044616233083" transform="matrix(0.976828587748564,0.21402315332025662,-0.21402315332025662,0.976828587748564,443.8701582658239,-242.413606857451)" fill="none" stroke="#d5d2c6" filter="url(#bbburst-blur-2)"></use><use xlink:href="#bbburst-shape-10" width="53.55923859933518" opacity="0.23173464607636285" transform="matrix(1.2345455450005385,-0.19595228327152384,0.19595228327152384,1.2345455450005385,626.6844004426639,-16.50994998799041)" fill="none" stroke="#d5d2c6" filter="url(#bbburst-blur-3)"></use><use xlink:href="#bbburst-shape-4" width="44.98438856106371" opacity="0.2100579977569519" transform="matrix(0.9103171319355354,-0.8566345307683207,0.8566345307683207,0.9103171319355354,-318.2249998151522,39.56970456585816)" fill="#d5d2c6" filter="url(#bbburst-blur-3)"></use><use xlink:href="#bbburst-shape-6" width="41.03353600829337" opacity="0.10447900401197607" transform="matrix(1.63382631776461,0.6269860950449665,-0.6269860950449665,1.63382631776461,260.5728730054726,-78.88014800481301)" fill="#d5d2c6" filter="url(#bbburst-blur-4)"></use><use xlink:href="#bbburst-shape-10" width="47.9300049847386" opacity="0.4417181584750437" transform="matrix(0.7512481732455069,0.6600198346983892,-0.6600198346983892,0.7512481732455069,765.1876295916827,-137.4732553594821)" fill="none" stroke="#d5d2c6" filter="url(#bbburst-blur-2)"></use><use xlink:href="#bbburst-shape-10" width="44.26653666358981" opacity="0.5815099368583119" transform="matrix(0.8911488118176771,0.45371113629262205,-0.45371113629262205,0.8911488118176771,472.2054334460413,199.16225922562495)" fill="none" stroke="#d5d2c6" filter="url(#bbburst-blur-1)"></use><use xlink:href="#bbburst-shape-4" width="37.1145251842327" opacity="0.4872949863654221" transform="matrix(0.8256352800171525,-0.5642042045137543,0.5642042045137543,0.8256352800171525,311.8287251311639,253.0982338711662)" fill="#d5d2c6" filter="url(#bbburst-blur-2)"></use><use xlink:href="#bbburst-shape-10" width="38.5400168392945" opacity="0.485995112824237" transform="matrix(0.9673886100403236,-0.2532968163326391,0.2532968163326391,0.9673886100403236,467.36990546243374,-117.75086704587193)" fill="none" stroke="#d5d2c6" filter="url(#bbburst-blur-2)"></use><use xlink:href="#bbburst-shape-10" width="34.55714607214479" opacity="0.4508604197144681" transform="matrix(0.9406362988119865,0.3394161948954223,-0.3394161948954223,0.9406362988119865,330.0682288895258,-140.7860071076885)" fill="none" stroke="#d5d2c6" filter="url(#bbburst-blur-2)"></use><use xlink:href="#bbburst-shape-4" width="36.35547088150855" opacity="0.8066323319956498" transform="matrix(0.9164695858799187,-0.40010435908284014,0.40010435908284014,0.9164695858799187,270.8153195264825,113.62036158973928)" fill="#d5d2c6"></use><use xlink:href="#bbburst-shape-4" width="49.71280953646841" opacity="0.21725445373665464" transform="matrix(1.249993249270902,-0.0041081354861525,0.0041081354861525,1.249993249270902,112.26277025218818,-342.80530574178806)" fill="#d5d2c6" filter="url(#bbburst-blur-3)"></use><use xlink:href="#bbburst-shape-10" width="44.011562064247855" opacity="0.44636514206516953" transform="matrix(0.8566888541904949,-0.5158335071568898,0.5158335071568898,0.8566888541904949,147.48664432854898,316.3081362909594)" fill="none" stroke="#d5d2c6" filter="url(#bbburst-blur-2)"></use><use xlink:href="#bbburst-shape-4" width="32.253707840869986" opacity="0.668366315334912" transform="matrix(0.8827891188594197,0.46976948775267374,-0.46976948775267374,0.8827891188594197,703.0010488534872,113.7745203278244)" fill="#d5d2c6" filter="url(#bbburst-blur-1)"></use><use xlink:href="#bbburst-shape-8" width="51.94249285822582" opacity="0.11781694449881541" transform="matrix(1.0742861730793487,-0.6390690246996233,0.6390690246996233,1.0742861730793487,462.3919182999566,181.65025311751435)" fill="none" stroke="#d5d2c6" filter="url(#bbburst-blur-3)"></use><use xlink:href="#bbburst-shape-6" width="40.71072737849462" opacity="0.4415071345548167" transform="matrix(0.9843189377939159,-0.17639792714274488,0.17639792714274488,0.9843189377939159,540.1264281920106,109.51365623960021)" fill="#d5d2c6" filter="url(#bbburst-blur-2)"></use><use xlink:href="#bbburst-shape-4" width="43.67897768519772" opacity="0.34858174188707736" transform="matrix(0.8474677722658936,0.5308468470007931,-0.5308468470007931,0.8474677722658936,463.29743646853484,-213.02869120540066)" fill="#d5d2c6" filter="url(#bbburst-blur-2)"></use><use xlink:href="#bbburst-shape-8" width="23.013975382822665" opacity="0.90064468996381" transform="matrix(0.9196813270022185,0.39266557878611974,-0.39266557878611974,0.9196813270022185,525.8240795146918,-12.04146025234121)" fill="none" stroke="#d5d2c6"></use><use xlink:href="#bbburst-shape-6" width="41.085368718013896" opacity="0.34215038313472956" transform="matrix(0.7322105848452953,-0.6810783063939936,0.6810783063939936,0.7322105848452953,-35.14754126157726,377.67550333926255)" fill="#d5d2c6" filter="url(#bbburst-blur-2)"></use><use xlink:href="#bbburst-shape-6" width="41.416873065158086" opacity="-0.05117004120903812" transform="matrix(1.726407695013462,0.2863851787336517,-0.2863851787336517,1.726407695013462,805.1585190571664,-638.9048759089828)" fill="#d5d2c6" filter="url(#bbburst-blur-4)"></use><use xlink:href="#bbburst-shape-6" width="29.772576860783122" opacity="0.7728667324322434" transform="matrix(0.9130465297753255,-0.40785540877280946,0.40785540877280946,0.9130465297753255,182.03498119444515,134.3778762448863)" fill="#d5d2c6" filter="url(#bbburst-blur-1)"></use><use xlink:href="#bbburst-shape-6" width="42.39946920382537" opacity="0.4929050083979727" transform="matrix(0.7243898600881766,0.6893905501248417,-0.6893905501248417,0.7243898600881766,432.37259917810945,104.34102570765691)" fill="#d5d2c6" filter="url(#bbburst-blur-2)"></use><use xlink:href="#bbburst-shape-1" width="51.695808171729475" opacity="0.37186134035857354" transform="matrix(0.8811670251001134,0.4728051119395985,-0.4728051119395985,0.8811670251001134,663.2948892441856,300.87564191037166)" fill="#d5d2c6" filter="url(#bbburst-blur-2)"></use><use xlink:href="#bbburst-shape-8" width="45.289952047075616" opacity="0.10652485856580829" transform="matrix(1.6148418810238998,0.6743780091989903,-0.6743780091989903,1.6148418810238998,437.274780237513,-612.3137807316352)" fill="none" stroke="#d5d2c6" filter="url(#bbburst-blur-4)"></use><use xlink:href="#bbburst-shape-10" width="27.864800107965294" opacity="0.6688561543960121" transform="matrix(0.9986100172917677,-0.052707052322582826,0.052707052322582826,0.9986100172917677,466.83203844607215,-107.50521432938683)" fill="none" stroke="#d5d2c6" filter="url(#bbburst-blur-1)"></use><use xlink:href="#bbburst-shape-10" width="49.759334373564414" opacity="0.2894257931752213" transform="matrix(1.130061941875852,0.5342845754125592,-0.5342845754125592,1.130061941875852,278.06371918098966,22.24907087542124)" fill="none" stroke="#d5d2c6" filter="url(#bbburst-blur-3)"></use><use xlink:href="#bbburst-shape-6" width="32.0743827437267" opacity="0.9538136514079132" transform="matrix(0.8929033416468908,-0.4502484008586992,0.4502484008586992,0.8929033416468908,203.17243724464828,70.70352527161623)" fill="#d5d2c6"></use><use xlink:href="#bbburst-shape-6" width="44.60478888829341" opacity="0.2733840477264673" transform="matrix(1.1600289205689789,-0.46565320083037054,0.46565320083037054,1.1600289205689789,246.60398279950246,-375.2841643863301)" fill="#d5d2c6" filter="url(#bbburst-blur-3)"></use><use xlink:href="#bbburst-shape-8" width="44.38406733794946" opacity="0.13381997530472345" transform="matrix(1.2399175776359743,-0.15844368295813283,0.15844368295813283,1.2399175776359743,480.1285332849882,257.8070675812058)" fill="none" stroke="#d5d2c6" filter="url(#bbburst-blur-3)"></use><use xlink:href="#bbburst-shape-6" width="45.189931429602495" opacity="0.13390829531543624" transform="matrix(1.046871895917635,0.6830514135391395,-0.6830514135391395,1.046871895917635,812.4299939184248,-388.2631275594531)" fill="#d5d2c6" filter="url(#bbburst-blur-3)"></use><use xlink:href="#bbburst-shape-1" width="42.260888301882865" opacity="0.3063383154805177" transform="matrix(0.955797886701198,-0.8055745774151042,0.8055745774151042,0.955797886701198,338.56787982008086,-101.2712868297562)" fill="#d5d2c6" filter="url(#bbburst-blur-3)"></use><use xlink:href="#bbburst-shape-4" width="24.44192016760059" opacity="0.7398850349137133" transform="matrix(0.9956422987758441,0.09325455961159675,-0.09325455961159675,0.9956422987758441,355.3645435099125,-93.36176446586722)" fill="#d5d2c6" filter="url(#bbburst-blur-1)"></use><use xlink:href="#bbburst-shape-8" width="35.26729174796654" opacity="0.8120804635951591" transform="matrix(0.9645223542331169,-0.26400118974089054,0.26400118974089054,0.9645223542331169,192.87090513915876,16.14297700370156)" fill="none" stroke="#d5d2c6"></use><use xlink:href="#bbburst-shape-10" width="43.754306654478604" opacity="0.480498948724722" transform="matrix(0.9817843562826092,0.1899986256759316,-0.1899986256759316,0.9817843562826092,262.12794152370225,135.9300718029245)" fill="none" stroke="#d5d2c6" filter="url(#bbburst-blur-2)"></use><use xlink:href="#bbburst-shape-6" width="42.16409272755665" opacity="0.34496927113290476" transform="matrix(0.9026491027444036,0.4303772732321296,-0.4303772732321296,0.9026491027444036,274.2636845120376,-65.6536803401612)" fill="#d5d2c6" filter="url(#bbburst-blur-2)"></use><use xlink:href="#bbburst-shape-1" width="41.50336621412844" opacity="0.20651125569278272" transform="matrix(1.2427677303436955,-0.13426975987309875,0.13426975987309875,1.2427677303436955,269.70471503039414,-447.6914074395383)" fill="#d5d2c6" filter="url(#bbburst-blur-3)"></use><use xlink:href="#bbburst-shape-1" width="45.47321147405876" opacity="0.1392587426097721" transform="matrix(1.2077079829764616,0.3223994848862617,-0.3223994848862617,1.2077079829764616,342.5191989315364,262.8685988293999)" fill="#d5d2c6" filter="url(#bbburst-blur-3)"></use><use xlink:href="#bbburst-shape-10" width="45.89994274777136" opacity="0.11852015379753367" transform="matrix(1.1293816229753886,-0.5357211491862881,0.5357211491862881,1.1293816229753886,-193.44888231356003,-219.9143396445963)" fill="none" stroke="#d5d2c6" filter="url(#bbburst-blur-3)"></use><use xlink:href="#bbburst-shape-10" width="40.40074325410069" opacity="0.618634338962148" transform="matrix(0.9908234177891267,-0.1351626973712558,0.1351626973712558,0.9908234177891267,166.5893720163003,-57.35891594446923)" fill="none" stroke="#d5d2c6" filter="url(#bbburst-blur-1)"></use><use xlink:href="#bbburst-shape-6" width="49.22954935661363" opacity="0.44903572102278533" transform="matrix(0.954780264411319,0.2973123722461811,-0.2973123722461811,0.954780264411319,742.4502057589708,-10.41579116049877)" fill="#d5d2c6" filter="url(#bbburst-blur-2)"></use><use xlink:href="#bbburst-shape-8" width="35.28765407080155" opacity="0.205111640898615" transform="matrix(0.9920010297641058,0.7605484579873618,-0.7605484579873618,0.9920010297641058,1040.724979167961,-61.47596195058128)" fill="none" stroke="#d5d2c6" filter="url(#bbburst-blur-3)"></use><use xlink:href="#bbburst-shape-4" width="40.7298995443979" opacity="0.24573529191519383" transform="matrix(1.24416786391776,0.12060815227138813,-0.12060815227138813,1.24416786391776,662.6488199963223,140.1860011943487)" fill="#d5d2c6" filter="url(#bbburst-blur-3)"></use><use xlink:href="#bbburst-shape-8" width="30.164317877495066" opacity="0.6220216652410449" transform="matrix(0.9987283312691124,-0.050415476992824004,0.050415476992824004,0.9987283312691124,388.8911037205945,-167.10229282774336)" fill="none" stroke="#d5d2c6" filter="url(#bbburst-blur-1)"></use><use xlink:href="#bbburst-shape-10" width="53.57434541004606" opacity="-0.04520768453896906" transform="matrix(1.7304996121380034,0.26052080989859516,-0.26052080989859516,1.7304996121380034,786.5345794398424,37.260994478941484)" fill="none" stroke="#d5d2c6" filter="url(#bbburst-blur-4)"></use><use xlink:href="#bbburst-shape-6" width="47.49660586990216" opacity="0.09123210279221827" transform="matrix(1.749989694738201,0.00600568981038332,-0.00600568981038332,1.749989694738201,711.6410708783967,-510.3212317626846)" fill="#d5d2c6" filter="url(#bbburst-blur-4)"></use><use xlink:href="#bbburst-shape-10" width="58.35504199079539" opacity="0.2244065868311771" transform="matrix(1.0893808584099167,0.6129839682488221,-0.6129839682488221,1.0893808584099167,842.8863250905355,-316.6066372371641)" fill="none" stroke="#d5d2c6" filter="url(#bbburst-blur-3)"></use><use xlink:href="#bbburst-shape-4" width="60.315359798989256" opacity="-0.05487052153230154" transform="matrix(1.338436020896032,-1.127425837014567,1.127425837014567,1.338436020896032,-428.99710057771205,-434.8788909548184)" fill="#d5d2c6" filter="url(#bbburst-blur-4)"></use><use xlink:href="#bbburst-shape-1" width="27.706368038301473" opacity="0.8336884216107564" transform="matrix(0.9879504208861685,-0.15477068802212715,0.15477068802212715,0.9879504208861685,397.5685326908092,-8.781478100699132)" fill="#d5d2c6"></use><use xlink:href="#bbburst-shape-4" width="37.752773481233916" opacity="0.6747339918050237" transform="matrix(0.7628230794238389,0.6466072606291485,-0.6466072606291485,0.7628230794238389,508.8661203879408,138.3963073473077)" fill="#d5d2c6" filter="url(#bbburst-blur-1)"></use><use xlink:href="#bbburst-shape-10" width="24.85861021311404" opacity="0.7985943096935739" transform="matrix(0.9809826025953738,-0.19409568105758282,0.19409568105758282,0.9809826025953738,331.7756994976951,-77.99990004418464)" fill="none" stroke="#d5d2c6"></use><use xlink:href="#bbburst-shape-4" width="45.739660849744205" opacity="-0.03600510920045319" transform="matrix(1.681633418390257,-0.4843645797878895,0.4843645797878895,1.681633418390257,-155.88200809465894,74.00021864132725)" fill="#d5d2c6" filter="url(#bbburst-blur-4)"></use><use xlink:href="#bbburst-shape-4" width="37.90119178461489" opacity="0.22126980745029579" transform="matrix(1.1934360556583814,-0.37176656796243135,0.37176656796243135,1.1934360556583814,231.32352358308063,280.1305513857434)" fill="#d5d2c6" filter="url(#bbburst-blur-3)"></use><use xlink:href="#bbburst-shape-10" width="34.08857780410793" opacity="0.6269318730995482" transform="matrix(0.707277221036907,-0.706936300243742,0.706936300243742,0.707277221036907,147.2880368697381,291.64995403955703)" fill="none" stroke="#d5d2c6" filter="url(#bbburst-blur-1)"></use><use xlink:href="#bbburst-shape-10" width="32.77903604264429" opacity="0.6477771150900946" transform="matrix(0.8259275146492312,0.563776321376966,-0.563776321376966,0.8259275146492312,769.2101225405365,40.41041483823568)" fill="none" stroke="#d5d2c6" filter="url(#bbburst-blur-1)"></use><use xlink:href="#bbburst-shape-10" width="28.013438140818362" opacity="0.5780853435145477" transform="matrix(0.8857907754824271,0.4640848005162854,-0.4640848005162854,0.8857907754824271,486.77677050338855,-129.85446605766813)" fill="none" stroke="#d5d2c6" filter="url(#bbburst-blur-1)"></use></svg>